<svg xmlns="http://www.w3.org/2000/svg" version="1.1" xmlns:xlink="http://www.w3.org/1999/xlink" viewBox="0 0 200 200" width="200" height="200"><rect width="200" height="200" fill="url('#gradient')"></rect><defs><linearGradient id="gradient" gradientTransform="rotate(45 0.5 0.5)"><stop offset="0%" stop-color="#211c36"></stop><stop offset="100%" stop-color="#211c36"></stop></linearGradient></defs><g><g fill="#34db16" transform="matrix(2.5571587125416206,0,0,2.5571587125416206,8.394477105828685,113.73303585814583)" stroke="#a8dc9f" stroke-width="0.2"><path d="M8.41-3.78L8.41-3.78Q8.41-4.53 7.88-4.95Q7.34-5.37 6.01-5.82Q4.67-6.27 3.82-6.69L3.82-6.69Q1.05-8.05 1.05-10.42L1.05-10.42Q1.05-11.60 1.74-12.50Q2.43-13.41 3.69-13.91Q4.95-14.41 6.52-14.41L6.52-14.41Q8.06-14.41 9.27-13.87Q10.49-13.32 11.16-12.31Q11.84-11.30 11.84-10L11.84-10L8.42-10Q8.42-10.87 7.89-11.35Q7.35-11.83 6.45-11.83L6.45-11.83Q5.53-11.83 5.00-11.42Q4.46-11.02 4.46-10.39L4.46-10.39Q4.46-9.84 5.05-9.40Q5.63-8.96 7.11-8.48Q8.58-8.01 9.53-7.46L9.53-7.46Q11.84-6.13 11.84-3.80L11.84-3.80Q11.84-1.93 10.43-0.87Q9.02 0.20 6.57 0.20L6.57 0.20Q4.84 0.20 3.44-0.42Q2.04-1.04 1.33-2.12Q0.63-3.20 0.63-4.61L0.63-4.61L4.06-4.61Q4.06-3.47 4.65-2.92Q5.24-2.38 6.57-2.38L6.57-2.38Q7.42-2.38 7.92-2.75Q8.41-3.12 8.41-3.78ZM19.99 0L17.69-3.94L16.76-3.01L16.76 0L13.47 0L13.47-15.01L16.76-15.01L16.76-7.04L17.09-7.48L19.57-10.57L23.52-10.57L19.81-6.22L23.76 0L19.99 0ZM26.93-10.57L28.60-4.61L30.36-10.57L33.89-10.57L29.58 1.77L29.39 2.22Q28.48 4.27 26.15 4.27L26.15 4.27Q25.51 4.27 24.79 4.07L24.79 4.07L24.79 1.72L25.22 1.72Q25.92 1.72 26.28 1.52Q26.65 1.32 26.83 0.80L26.83 0.80L27.09 0.10L23.42-10.57L26.93-10.57ZM44.55-5.36L44.55-5.21Q44.55-2.74 43.44-1.27Q42.33 0.20 40.45 0.20L40.45 0.20Q38.99 0.20 38.06-0.87L38.06-0.87L38.06 4.06L34.77 4.06L34.77-10.57L37.84-10.57L37.94-9.59Q38.89-10.76 40.43-10.76L40.43-10.76Q42.38-10.76 43.47-9.32Q44.55-7.88 44.55-5.36L44.55-5.36ZM41.26-5.06L41.26-5.41Q41.26-8.22 39.62-8.22L39.62-8.22Q38.45-8.22 38.06-7.38L38.06-7.38L38.06-3.22Q38.49-2.34 39.64-2.34L39.64-2.34Q41.21-2.34 41.26-5.06L41.26-5.06ZM45.60-4.82L45.59-5.38Q45.59-6.96 46.20-8.20Q46.82-9.43 47.97-10.10Q49.12-10.76 50.67-10.76L50.67-10.76Q53.05-10.76 54.41-9.29Q55.78-7.82 55.78-5.29L55.78-5.29L55.78-5.18Q55.78-2.71 54.41-1.25Q53.04 0.20 50.69 0.20L50.69 0.20Q48.44 0.20 47.07-1.16Q45.70-2.51 45.60-4.82L45.60-4.82ZM48.89-5.77L48.88-5.18Q48.88-3.71 49.34-3.03Q49.79-2.34 50.69-2.34L50.69-2.34Q52.45-2.34 52.49-5.05L52.49-5.05L52.49-5.38Q52.49-8.22 50.67-8.22L50.67-8.22Q49.02-8.22 48.89-5.77L48.89-5.77ZM63.68-10.64L63.62-7.59L62.54-7.67Q60.99-7.67 60.55-6.69L60.55-6.69L60.55 0L57.26 0L57.26-10.57L60.34-10.57L60.45-9.21Q61.28-10.76 62.76-10.76L62.76-10.76Q63.29-10.76 63.68-10.64L63.68-10.64ZM65.84-13.19L69.13-13.19L69.13-10.57L70.87-10.57L70.87-8.28L69.13-8.28L69.13-3.45Q69.13-2.85 69.35-2.62Q69.56-2.38 70.20-2.38L70.20-2.38Q70.68-2.38 71.02-2.44L71.02-2.44L71.02-0.09Q70.13 0.20 69.16 0.20L69.16 0.20Q67.46 0.20 66.65-0.61Q65.84-1.41 65.84-3.04L65.84-3.04L65.84-8.28L64.49-8.28L64.49-10.57L65.84-10.57L65.84-13.19Z"></path></g></g><style>@media (prefers-color-scheme: light) { :root { filter: none; } }
@media (prefers-color-scheme: dark) { :root { filter: none; } }
</style></svg>